<?xml version="1.0" encoding="UTF-8" standalone="no"?>
<!-- Created with Inkscape (http://www.inkscape.org/) -->

<svg
   width="30"
   height="30"
   viewBox="0 0 7.9375 7.9375"
   version="1.1"
   id="svg5"
   inkscape:version="1.1 (c68e22c387, 2021-05-23)"
   sodipodi:docname="smart-pump-fav.svg"
   xmlns:inkscape="http://www.inkscape.org/namespaces/inkscape"
   xmlns:sodipodi="http://sodipodi.sourceforge.net/DTD/sodipodi-0.dtd"
   xmlns="http://www.w3.org/2000/svg"
   xmlns:svg="http://www.w3.org/2000/svg">
  <sodipodi:namedview
     id="namedview7"
     pagecolor="#ffffff"
     bordercolor="#666666"
     borderopacity="1.0"
     inkscape:pageshadow="2"
     inkscape:pageopacity="0.0"
     inkscape:pagecheckerboard="0"
     inkscape:document-units="px"
     showgrid="false"
     inkscape:zoom="4.7041667"
     inkscape:cx="29.867139"
     inkscape:cy="53.250664"
     inkscape:window-width="1280"
     inkscape:window-height="971"
     inkscape:window-x="-8"
     inkscape:window-y="-8"
     inkscape:window-maximized="1"
     inkscape:current-layer="g856" />
  <defs
     id="defs2" />
  <g
     inkscape:label="Capa 1"
     inkscape:groupmode="layer"
     id="layer1">
    <g
       id="g856"
       transform="translate(-3.8180007,13.99934)">
      <path
         style="fill:#e8f3fd;stroke-width:0.264583"
         d="m 111.66676,-14.637593 c 0,-10.550261 0.0328,-14.866276 0.0729,-9.591146 0.0401,5.27513 0.0401,13.907161 0,19.1822915 -0.0401,5.27513021 -0.0729,0.9591146 -0.0729,-9.5911455 z m -73.164726,14.88281217 -0.911799,-0.9921875 0.992188,0.91179914 c 0.545703,0.50148861 0.992187,0.94797299 0.992187,0.99218749 0,0.2020411 -0.223896,0.011695 -1.072576,-0.91179913 z M 62.328777,0.311365 c 0.493654,-0.50932292 0.957085,-0.92604167 1.029846,-0.92604167 0.07276,0 -0.271608,0.41671875 -0.765262,0.92604167 -0.493655,0.50932292 -0.957086,0.9260417 -1.029846,0.9260417 -0.07276,0 0.271608,-0.41671878 0.765262,-0.9260417 z m -5.688542,-4.8947917 c 0.263391,-0.2910416 0.538422,-0.5291666 0.611183,-0.5291666 0.07276,0 -0.08321,0.238125 -0.346599,0.5291666 -0.26339,0.2910417 -0.538422,0.5291667 -0.611182,0.5291667 -0.07276,0 0.08321,-0.238125 0.346598,-0.5291667 z m 10.736514,-6.9894103 c -0.01148,-0.278913 0.05105,-0.435184 0.138965,-0.347266 0.08792,0.08792 0.09732,0.316124 0.02088,0.507119 -0.08446,0.211066 -0.147156,0.148373 -0.159851,-0.159853 z m -41.560472,-0.551215 c 0.341775,-0.363802 0.680939,-0.661458 0.7537,-0.661458 0.07276,0 -0.147341,0.297656 -0.489117,0.661458 -0.341776,0.363802 -0.68094,0.661459 -0.7537,0.661459 -0.07276,0 0.147341,-0.297657 0.489117,-0.661459 z M 15.3046,-14.003697 c 0.08792,-0.08792 0.316122,-0.09732 0.507119,-0.02087 0.211066,0.08446 0.148373,0.147156 -0.159853,0.15985 -0.278913,0.01148 -0.435184,-0.05105 -0.347266,-0.138964 z m 115.8875,0 c 0.0879,-0.08792 0.31613,-0.09732 0.50712,-0.02087 0.21107,0.08446 0.14837,0.147156 -0.15985,0.15985 -0.27892,0.01148 -0.43519,-0.05105 -0.34727,-0.138964 z m 4.39251,-12.209417 c -0.32911,-0.419645 -0.31975,-0.429004 0.0999,-0.0999 0.44073,0.345643 0.58088,0.562917 0.36312,0.562917 -0.0549,0 -0.2633,-0.20836 -0.46302,-0.463021 z m 6.35,-3.439583 c -0.32911,-0.419646 -0.31975,-0.429004 0.0999,-0.0999 0.44073,0.345644 0.58088,0.562917 0.36312,0.562917 -0.0549,0 -0.2633,-0.208359 -0.46302,-0.46302 z m -1.05833,-1.058334 c -0.32911,-0.419645 -0.31975,-0.429003 0.0999,-0.0999 0.44073,0.345644 0.58089,0.562917 0.36313,0.562917 -0.0549,0 -0.2633,-0.208359 -0.46302,-0.463021 z m -8.09668,-3.136416 c 0.0879,-0.08792 0.31613,-0.09732 0.50712,-0.02087 0.21107,0.08446 0.14837,0.147156 -0.15985,0.15985 -0.27892,0.01148 -0.43519,-0.05105 -0.34727,-0.138964 z M 24.615701,-60.807385 c -5.3e-5,-6.985 0.03407,-9.880497 0.07582,-6.434436 0.04175,3.446057 0.0418,9.161057 9.5e-5,12.7 -0.0417,3.538939 -0.07586,0.719436 -0.07591,-6.265564 z m 23.283333,0 c -5.3e-5,-6.985 0.03407,-9.880497 0.07582,-6.434436 0.04175,3.446057 0.0418,9.161057 9.6e-5,12.7 -0.0417,3.538939 -0.07586,0.719436 -0.07592,-6.265564 z m 64.023616,5.027083 c 1.2e-4,-4.220104 0.0366,-5.90946 0.0812,-3.754128 0.0445,2.155336 0.0444,5.608148 -2.3e-4,7.672917 -0.0447,2.064771 -0.0811,0.301316 -0.081,-3.918789 z M 2.929818,-55.912593 c 0.2633901,-0.291042 0.5384218,-0.529167 0.6111822,-0.529167 0.07276,0 -0.083209,0.238125 -0.3465988,0.529167 -0.2633901,0.291041 -0.5384218,0.529166 -0.6111823,0.529166 -0.07276,0 0.083209,-0.238125 0.3465989,-0.529166 z m 0.098541,-4.960938 c -0.3291072,-0.419645 -0.3197489,-0.429003 0.099896,-0.0999 0.4407297,0.345644 0.5808875,0.562917 0.3631248,0.562917 -0.054941,0 -0.2633001,-0.208359 -0.4630209,-0.463021 z M 127.54857,-67.55426 c 0.26339,-0.291042 0.53842,-0.529167 0.61118,-0.529167 0.0728,0 -0.0832,0.238125 -0.3466,0.529167 -0.26339,0.291042 -0.53842,0.529167 -0.61118,0.529167 -0.0728,0 0.0832,-0.238125 0.3466,-0.529167 z m -15.6296,-7.408333 c 0,-3.274219 0.038,-4.613672 0.0844,-2.976563 0.0464,1.63711 0.0464,4.316016 0,5.953125 -0.0464,1.63711 -0.0844,0.297656 -0.0844,-2.976562 z m 23.27303,-7.805209 c -5.3e-4,-1.89177 0.0413,-2.700393 0.0928,-1.796941 0.0515,0.903454 0.0519,2.451267 7.9e-4,3.439583 -0.051,0.988319 -0.0932,0.249129 -0.0936,-1.642642 z m 28.57416,-0.132291 c 0,-1.819011 0.0423,-2.563151 0.0939,-1.653646 0.0517,0.909505 0.0517,2.397786 0,3.307292 -0.0517,0.909505 -0.0939,0.165364 -0.0939,-1.653646 z M 78.540018,-104.22661 c 0.08792,-0.0879 0.316121,-0.0973 0.507119,-0.0209 0.211066,0.0845 0.148373,0.14716 -0.159854,0.15985 -0.278913,0.0115 -0.435184,-0.051 -0.347265,-0.13896 z m -20.213741,-5.59484 c -0.329107,-0.41964 -0.319749,-0.429 0.0999,-0.0999 0.44073,0.34564 0.580887,0.56291 0.363125,0.56291 -0.05494,0 -0.2633,-0.20836 -0.463021,-0.46302 z m 34.032709,-0.85989 c 0.26339,-0.29104 0.538422,-0.52917 0.611182,-0.52917 0.07276,0 -0.08321,0.23813 -0.346599,0.52917 -0.26339,0.29104 -0.538422,0.52916 -0.611182,0.52916 -0.07276,0 0.08321,-0.23812 0.346599,-0.52916 z m 1.984375,-1.98438 c 0.181158,-0.21828 0.388908,-0.39687 0.461669,-0.39687 0.07276,0 -0.01593,0.17859 -0.197086,0.39687 -0.181157,0.21828 -0.388908,0.39688 -0.461669,0.39688 -0.07276,0 0.01593,-0.1786 0.197086,-0.39688 z m -4.233333,-0.52916 c 0.181157,-0.21829 0.388908,-0.39688 0.461668,-0.39688 0.07276,0 -0.01593,0.17859 -0.197085,0.39688 -0.181158,0.21828 -0.388908,0.39687 -0.461669,0.39687 -0.07276,0 0.01593,-0.17859 0.197086,-0.39687 z m -22.153344,-12.72757 c 0.08792,-0.0879 0.316122,-0.0973 0.507119,-0.0209 0.211066,0.0845 0.148373,0.14715 -0.159853,0.15985 -0.278913,0.0115 -0.435184,-0.0511 -0.347266,-0.13897 z m 29.62306,-2.75056 c 0,-0.50932 0.05445,-0.71768 0.121002,-0.46302 0.06655,0.25466 0.06655,0.67138 0,0.92604 -0.06655,0.25466 -0.121002,0.0463 -0.121002,-0.46302 z m 0,-2.91042 c 0,-0.50932 0.05445,-0.71768 0.121002,-0.46302 0.06655,0.25466 0.06655,0.67138 0,0.92604 -0.06655,0.25467 -0.121002,0.0463 -0.121002,-0.46302 z m -30.732161,-0.90399 c -0.01148,-0.27891 0.05105,-0.43518 0.138964,-0.34727 0.08792,0.0879 0.09732,0.31613 0.02088,0.50712 -0.08446,0.21107 -0.147156,0.14838 -0.159851,-0.15985 z m 7.063708,-20.45675 c 0.622311,-0.0559 1.574811,-0.0551 2.116667,0.002 0.541856,0.0568 0.03269,0.10258 -1.131472,0.10162 -1.164167,-0.001 -1.607505,-0.0475 -0.985195,-0.10337 z m 18.778424,-0.004 c 1.928151,-0.0452 5.083307,-0.0452 7.011459,0 1.928146,0.0452 0.350576,0.0822 -3.50573,0.0822 -3.856302,0 -5.43388,-0.037 -3.505729,-0.0822 z m -12.189672,-3.44007 c 4.100603,-0.041 10.887165,-0.041 15.08125,-7e-5 4.194086,0.041 0.839047,0.0745 -7.45564,0.0745 -8.294688,4e-5 -11.726212,-0.0335 -7.62561,-0.0745 z"
         id="path870" />
      <g
         id="g1633"
         transform="matrix(0.10207626,0,0,0.10207626,5.5633873,3.3162252)">
        <ellipse
           style="fill:#ffffff;fill-rule:evenodd;stroke-width:0.773623"
           id="path1315"
           cx="22.676472"
           cy="-130.00394"
           rx="25.221804"
           ry="23.988758" />
        <path
           style="fill:#2993f1;stroke:#ffffff;stroke-width:0.79375;stroke-miterlimit:4;stroke-dasharray:none;stroke-opacity:1"
           d="m 20.590753,-103.61172 c -5.850612,-0.70105 -9.568426,-2.10268 -13.564656,-5.11393 -5.659535,-4.26459 -9.099095,-10.09922 -10.224693,-17.34446 l -0.287734,-1.85209 -5.667931,-0.0715 c -3.636717,-0.0459 -5.793843,-0.17603 -6.019271,-0.36312 -0.193238,-0.16038 -0.35134,-0.67361 -0.35134,-1.14053 0,-1.33856 0.52882,-1.46129 6.612218,-1.53453 l 5.42159,-0.0653 0.218284,-1.32291 c 1.075661,-6.51915 3.280156,-11.12829 7.22756,-15.11132 3.630263,-3.66304 6.626624,-5.38503 12.667223,-7.27979 0.780132,-0.24471 5.509562,-0.37083 17.991667,-0.47981 l 16.933331,-0.14783 0.0878,-0.92498 c 0.0998,-1.05168 0.45307,-1.58857 1.04532,-1.58857 0.22376,0 1.75699,0.65653 3.40719,1.45896 2.93155,1.4255 3.00035,1.47915 3.00035,2.34024 0,1.1597 -0.39553,1.47803 -3.68327,2.96433 -3.08849,1.39624 -3.53807,1.36665 -3.67489,-0.24189 l -0.0821,-0.96539 h -8.186112 c -4.502359,0 -8.179125,0.0893 -8.17059,0.19844 0.0085,0.10914 0.838877,0.72621 1.845199,1.37126 1.907998,1.22303 4.990933,4.15218 6.284412,5.97093 3.745291,5.26622 5.356561,11.20808 4.817341,17.76481 -0.899946,10.943 -8.655217,20.01404 -19.413311,22.70701 -2.304086,0.57676 -6.544643,0.97436 -8.233537,0.77199 z m 5.354016,-3.0398 c 3.538083,-0.82199 4.612794,-1.1673 6.614451,-2.12525 5.808877,-2.78002 10.551793,-8.5487 12.275884,-14.93084 0.692007,-2.56163 0.835168,-8.12939 0.26824,-10.4323 -1.464911,-5.95057 -4.353116,-10.47773 -8.769882,-13.7465 -4.156364,-3.07604 -8.573731,-4.51228 -13.858404,-4.50584 -6.322336,0.008 -11.543247,2.1096 -15.992449,6.43842 -1.977578,1.92407 -4.296365,5.29001 -5.234115,7.59782 -0.817059,2.0108 -1.682535,5.36147 -1.688055,6.53527 l -0.0041,0.86395 7.606771,-0.0702 7.606771,-0.0702 0.132292,-1.05833 c 0.177056,-1.41645 0.810971,-1.48493 3.251946,-0.3513 4.019436,1.86668 4.017028,1.86503 4.108849,2.82344 0.08011,0.83611 -0.501594,1.89348 -1.041672,1.89348 -0.117398,0 -1.358408,0.53499 -2.757805,1.18887 -2.931091,1.36957 -3.474977,1.31991 -3.611539,-0.32976 l -0.08207,-0.9914 H 7.229257 -0.311368 l -0.08497,0.74059 c -0.08771,0.76446 0.479012,3.32972 1.165397,5.27515 2.63675,7.47334 9.265936,13.3376 16.869535,14.923 1.035015,0.2158 1.934144,0.44467 1.998062,0.50859 0.240419,0.24042 5.098468,0.10438 6.308079,-0.17665 z"
           id="path858"
           sodipodi:nodetypes="sssccssccsssscsssssscscssssssssssscssccccsssssscccssssss" />
      </g>
    </g>
    <path
       style="fill:#000000;stroke-width:0.264583"
       id="path836"
       d="" />
  </g>
</svg>
